<svg width="16" height="16" viewBox="0 0 16 16" fill="none" xmlns="http://www.w3.org/2000/svg">
<path d="M10 1C12.357 1 13.5353 1.00019 14.2676 1.73242C14.8411 2.30594 14.9633 3.15308 14.9902 4.62598L12.1689 3.21582L11.5 2.88281L10.8311 3.21582L7.8291 4.7168L7.82812 4.71777L7 5.13281V11H6C3.64298 11 2.46465 10.9998 1.73242 10.2676C1.00019 9.53535 1 8.35702 1 6C1 3.64298 1.00019 2.46465 1.73242 1.73242C2.46465 1.00019 3.64298 1 6 1H10ZM11.7236 4.11133L14.999 5.74902C14.9991 5.83117 15 5.91481 15 6C15 8.35702 14.9998 9.53535 14.2676 10.2676C13.8875 10.6477 13.387 10.8281 12.6641 10.916L14 10.249V6.86719L12 7.86719V10.9688C11.6991 10.9838 11.3674 10.993 11 10.9961V7.86719L9 6.86719V10.249L10.5 10.999C10.3395 10.9993 10.1729 11 10 11H8.26465L8 10.8672V5.75L8.27637 5.61133L11.2764 4.11133L11.5 4L11.7236 4.11133ZM9.61816 6.05859L11.5 6.99902L13.3818 6.05859L11.5 5.11719L9.61816 6.05859Z" fill="#443DFF"/>
<path d="M3 4V6.8L3.8 6H5L3 4Z" fill="white"/>
<path d="M3 4L3.35355 3.64645L2.5 2.79289V4H3ZM3 6.8H2.5C2.5 7.00223 2.62182 7.18455 2.80866 7.26194C2.9955 7.33933 3.21055 7.29655 3.35355 7.15355L3 6.8ZM3.8 6V5.5C3.66739 5.5 3.54021 5.55268 3.44645 5.64645L3.8 6ZM5 6V6.5C5.20223 6.5 5.38455 6.37818 5.46194 6.19134C5.53933 6.0045 5.49655 5.78945 5.35355 5.64645L5 6ZM4.13576 8.1857C4.23832 8.44209 4.5293 8.5668 4.7857 8.46424C5.04209 8.36168 5.1668 8.0707 5.06424 7.8143L4.13576 8.1857ZM3 4H2.5V6.8H3H3.5V4H3ZM3 6.8L3.35355 7.15355L4.15355 6.35355L3.8 6L3.44645 5.64645L2.64645 6.44645L3 6.8ZM3.8 6V6.5H5V6V5.5H3.8V6ZM5 6L5.35355 5.64645L3.35355 3.64645L3 4L2.64645 4.35355L4.64645 6.35355L5 6ZM3.8 6L3.33576 6.1857L4.13576 8.1857L4.6 8L5.06424 7.8143L4.26424 5.8143L3.8 6Z" fill="white"/>
<path d="M9 10.249L11 11.249V7.86719L9 6.86719V10.249ZM12 7.86719V11.249L14 10.249V6.86719L12 7.86719ZM9.61816 6.05859L11.5 6.99902L13.3818 6.05859L11.5 5.11719L9.61816 6.05859ZM15 10.8672L14.7236 11.0059L11.7236 12.5059L11.5 12.6172L11.2764 12.5059L8.27637 11.0059L8 10.8672V5.75L8.27637 5.61133L11.2764 4.11133L11.5 4L11.7236 4.11133L14.7236 5.61133L15 5.75V10.8672Z" fill="#443DFF"/>
</svg>
