/* XPM */
static char *start[] = {
/* columns rows colors chars-per-pixel */
"60 20 17 1 ",
"  c #433CFF",
". c #433DFF",
"X c #433EFF",
"o c #443CFF",
"O c #443DFF",
"+ c #453DFF",
"@ c #443EFF",
"# c #453EFF",
"$ c #5B55FF",
"% c #6761FF",
"& c #736DFF",
"* c #A19DFF",
"= c #A19EFF",
"- c #B9B6FF",
"; c #C4C2FF",
": c white",
"> c None",
/* pixels */
">>>>>>>>>>>>>>>>>>>>>>>>>>>>>>>>>>>>>>>>>>>>>>>>>>>>>>>>>>>>",
">>>>>>>>>>>>>>>>>>>>>>>>>>>>>>>>>>>>>>>>>>>>>>>>>>>>>>>>>>>>",
">>>>>>>>>>>>>>>>>>>>>>>>>>>>>>>>>>>>>>>>>>>>>>>>>>>>>>>>>>>>",
">>>>>>>>>>>>>>>>>>>>>>>>>>>>>>>>>>>>>>>>>>>>>>>>>>>>>>>>>>>>",
">>>>>>>>>>>>>>>>>>>>>>>>>>>>>>>>>>>>>>>>>>>>>>>>>>>>>>>>>>>>",
">>>>>>OOOOOOOOOOOO>>>>>>>>>>>>>O>>>>>>>>>>>>>>>>>>>O>>>>>>>>",
">>>>>OOOOOOOOOOOOOO>>>>>>>>>>>OO>>>>>>>>>>>>>>>>>>>O#>>>>>>>",
">>>>>OO-OOOOO.>>>.O>>>>>OOO.>OOOOO>>>OOOO>>>OO>O>>OOOOO>>>>>",
">>>>>OO:-OO.>>>O>>>>>>>OOO..>OOOOO>>OOOOOO>>OOOOO>OOO##>>>>>",
">>>>>OO::-O>>OO>OO>>>>>O.>>>>>OO>>>>>>>>OO>>OOO>>>>O#>>>>>>>",
">>>>>OO::=O>OO>>>OO>>>>OOO.>>>OO>>>>>>OOOO>>OO>>>>>OO>>>>>>>",
">>>>>OO%;=O>O>OOO>O>>>>>OOOO>>OO>>>>OOOoOO>>OO>>>>>OO>>>>>>>",
">>>>>OOO$&O>O>>O>>O>>>>>>>OO>>OO>>>>Oo>>OO>>OO>>>>>OO>>>>>>>",
">>>>>OOOOOO>O>>O>>O>>>>OO>OO>>OOOO>>OOOOOO>>OO>>>>>OOOO>>>>>",
">>>>>>OOOOO>O>>O>>O>>>>OOOOO>>>OOO>>oOOOOO>>OO>>>>>OOOO>>>>>",
">>>>>>>>>>>>>.OOOO>>>>>>>>>>>>>>>>>>>>>>>>>>>>>>>>>>>>>>>>>>",
">>>>>>>>>>>>>>>O>>>>>>>>>>>>>>>>>>>>>>>>>>>>>>>>>>>>>>>>>>>>",
">>>>>>>>>>>>>>>>>>>>>>>>>>>>>>>>>>>>>>>>>>>>>>>>>>>>>>>>>>>>",
">>>>>>>>>>>>>>>>>>>>>>>>>>>>>>>>>>>>>>>>>>>>>>>>>>>>>>>>>>>>",
">>>>>>>>>>>>>>>>>>>>>>>>>>>>>>>>>>>>>>>>>>>>>>>>>>>>>>>>>>>>"
};
